<?xml version="1.0" encoding="utf-8"?>
<!-- Generator: Adobe Illustrator 27.0.0, SVG Export Plug-In . SVG Version: 6.00 Build 0)  -->
<svg version="1.1" id="Layer_1" xmlns="http://www.w3.org/2000/svg" xmlns:xlink="http://www.w3.org/1999/xlink" x="0px" y="0px"
	 viewBox="0 0 512 512" style="enable-background:new 0 0 512 512;" xml:space="preserve">
<style type="text/css">
	.st0{fill:#00949D;}
</style>
<g id="XMLID_1_">
	<path id="XMLID_5_" class="st0" d="M136.4,331.6c-7.29-1.12-14.72-7.43-16.69-14.16c-0.56-2.24-0.84-5.75-0.56-10.24
		c0.56-8.55,3.79-18.65,11.08-33.94c2.94-6.17,5.05-11.08,4.49-10.8c-3.65,2.1-24.26,16.55-33.38,23.42l-11.08,8.27l-2.94,7.71
		c-1.54,4.21-4.35,12.48-5.89,18.09c-1.68,5.61-3.51,10.66-3.93,10.94c-1.68,1.12-3.93,0.28-4.21-1.4
		c-0.14-0.84,1.82-7.57,4.35-15.01c2.52-7.43,4.63-13.6,4.63-13.88c0-0.28-5.89,3.93-13.04,9.26
		c-13.32,9.96-22.44,15.71-30.85,19.21c-4.07,1.68-5.89,1.96-12.76,1.96c-7.71,0-8.27-0.14-12.9-2.66
		c-5.61-2.94-7.99-5.61-10.8-11.5c-1.82-3.93-1.96-4.91-1.96-14.86c0-10.1,0.14-11.08,2.52-17.95c2.94-8.41,11.08-24.68,17.11-33.8
		c2.24-3.51,7.29-10.38,11.22-15.29s7.01-9.12,7.01-9.26s-3.23,0.28-7.01,1.12c-5.61,1.12-7.15,1.26-7.57,0.42
		c-0.98-1.68,0.98-2.66,10.52-4.91l9.26-2.24l7.29-7.99c11.22-12.34,26.78-27.07,31.27-29.73c3.09-1.82,5.05-2.38,7.99-2.38
		c4.77,0,8.83,2.24,8.83,4.77c0,1.12-4.07,6.45-11.08,14.72c-6.03,7.15-10.94,13.04-10.8,13.18c0.14,0.14,6.03-0.7,13.04-1.68
		c11.92-1.82,12.9-1.82,14.16-0.7c1.12,1.12,1.12,1.4-0.14,2.24c-0.7,0.56-8.27,2.1-16.69,3.51c-8.41,1.4-15.85,2.94-16.41,3.37
		c-2.24,1.68-18.37,24.96-24.12,34.64c-10.38,17.39-15.43,28.89-18.79,42.63c-2.24,8.98-2.24,9.68-0.84,11.64
		c0.98,1.4,1.26,1.26,7.01-1.68c9.26-4.77,19.07-10.8,37.02-23.14c9.12-6.17,18.23-12.48,20.47-13.88c3.93-2.66,4.21-2.8,9.68-15.29
		c9.54-21.46,25.24-52.31,28.61-56.09c1.26-1.4,4.07-1.82,4.07-0.56c0,0.42-2.52,5.33-5.47,10.94
		c-9.54,17.67-25.8,52.03-24.96,52.87c0.14,0.14,3.79-1.96,7.99-4.63c9.96-6.45,26.08-15.57,34.5-19.49
		c9.82-4.63,16.69-4.07,20.19,1.82c3.51,5.75,1.82,11.64-11.08,38.28c-10.52,21.88-14.02,31.27-12.62,33.52
		c0.56,0.84,1.54,0.56,5.05-1.12c6.31-3.09,18.23-11.08,27.21-18.37c13.18-10.52,16.83-12.76,21.32-12.76
		c4.77,0,9.68,2.38,10.24,4.91c0.42,1.54-0.56,2.94-6.17,8.98c-16.55,17.67-32.25,29.87-45.16,35.2
		C145.79,331.6,141.87,332.45,136.4,331.6z M205.68,262.05c-5.75-2.24-3.23-12.2,2.94-12.2c2.94,0,6.73,3.65,6.73,6.45
		c0,2.52-3.79,6.45-6.31,6.45C208.2,262.75,206.66,262.33,205.68,262.05z"/>
	<path id="XMLID_39_" d="M482.5,318.98c-3.51-1.26-6.17-3.51-7.99-6.87c-0.98-1.82-1.26-5.19-1.54-18.51l-0.28-16.27h4.21h4.21
		l0.28,16.13l0.28,16.13l2.1,1.82c2.94,2.52,10.1,2.66,12.62,0.28c2.8-2.66,3.23-4.77,3.23-19.91v-14.44h4.21h4.21l-0.28,16.27
		c-0.28,13.46-0.42,16.69-1.54,18.65c-1.82,3.23-5.47,6.17-8.83,7.15C493.44,320.53,486.01,320.39,482.5,318.98z M247.19,298.51
		v-21.04h4.21h4.21v21.04v21.04h-4.21h-4.21V298.51z M264.71,298.51v-21.04h4.21h4.21v17.95v17.95h8.41h8.41v3.09v3.09h-12.62
		h-12.62V298.51z M295.43,298.37v-21.04l6.59,0.28l6.59,0.28l5.19,15.29c2.8,8.41,5.33,14.72,5.61,14.16
		c0.28-0.7,2.52-7.57,5.19-15.43l4.77-14.3h6.87h6.87v21.04v21.04h-4.21h-4.21v-16.97v-16.97l-5.75,16.97l-5.75,16.97h-4.07h-4.07
		l-5.75-16.97l-5.75-16.97v16.97v16.97h-3.79h-3.79v-21.32H295.43z M351.94,298.51v-21.04h12.62h12.62v3.09v3.09l-8.27,0.28
		l-8.27,0.28l-0.28,5.19l-0.28,5.19h7.71h7.71v3.51v3.51h-7.71h-7.71v5.61c0,6.73-0.14,6.59,10.1,6.59h6.73v3.09v3.09h-12.62h-12.62
		v-21.46H351.94z M385.6,298.51v-21.04h5.19h5.19l7.85,15.15l7.85,15.15v-15.15v-15.15h4.21h4.21v21.04v21.04l-5.19-0.28l-5.19-0.28
		l-7.43-14.44c-4.07-7.99-7.71-14.86-8.27-15.29c-0.56-0.56-0.84,3.51-0.84,14.58v15.43h-3.79h-3.79V298.51z M426.55,318.14
		c0.28-0.7,3.65-10.1,7.57-20.9l7.15-19.49h5.61h5.61l7.01,20.9l7.01,20.9h-4.35h-4.49l-1.4-4.35l-1.4-4.35h-8.69h-8.69l-1.4,4.35
		l-1.4,4.35h-4.21C426.55,319.54,426.13,319.26,426.55,318.14z M451.79,301.73c-0.28-0.98-1.68-4.77-2.94-8.55l-2.38-6.87l-2.8,7.71
		c-1.54,4.21-2.8,7.99-2.8,8.55c0,0.56,1.82,0.84,5.75,0.84C452.21,303.42,452.21,303.42,451.79,301.73z M251.81,261.91
		c-1.54-0.56-3.37-1.96-4.35-3.51c-1.68-2.38-1.68-3.37-1.68-13.6v-10.94h2.66h2.66v10.24c0,9.12,0.14,10.38,1.54,12.2
		c1.96,2.52,6.73,2.8,9.12,0.42c1.4-1.4,1.54-2.52,1.54-12.2v-10.66h3.09h3.09l-0.28,10.94c-0.28,8.27-0.56,11.5-1.54,13.32
		C265.42,262.19,257.98,264.01,251.81,261.91z M401.44,262.33c-1.82-0.28-2.1-0.7-2.1-2.94c0-2.38,0.14-2.66,1.68-2.24
		c5.19,1.12,8.83,0.7,9.82-1.12c1.12-2.1-0.56-3.93-5.89-6.45c-3.23-1.54-4.35-2.52-5.33-4.63c-2.24-5.33,0.42-9.54,6.59-10.94
		c1.96-0.42,4.77-0.56,6.31-0.28c2.52,0.42,2.8,0.7,2.8,2.66c0,2.1,0,2.1-4.63,1.96c-2.52-0.14-4.91,0.28-5.47,0.7
		c-1.68,1.68,0,4.49,4.07,6.73c6.17,3.23,8.27,5.47,8.27,8.83C417.71,260.93,411.68,263.87,401.44,262.33z M276.21,247.88v-14.16
		l3.65,0.28l3.65,0.28l5.19,9.96l5.19,9.96v-10.1V234h3.09h3.09v14.16v14.16h-3.65h-3.65l-5.47-10.52l-5.47-10.52v10.52v10.52h-2.66
		h-2.66v-14.44H276.21z M307.63,248.02v-14.16h2.66h2.66v14.16v14.16h-2.66h-2.66V248.02z M323.05,248.59
		c-2.52-7.43-4.63-13.88-4.63-14.16c0-0.28,1.4-0.56,2.94-0.56h2.94l3.37,10.66c1.82,5.89,3.51,10.66,3.79,10.66
		s1.96-4.77,3.93-10.52l3.51-10.52l2.94-0.28c1.54-0.14,2.8,0.14,2.66,0.42c-0.14,0.42-2.38,6.73-4.91,14.16l-4.63,13.46h-3.51
		h-3.51L323.05,248.59z M349.7,248.02v-14.16h8.41h8.41v2.24v2.24h-5.75h-5.75v3.51v3.51h5.47h5.47l-0.28,2.1
		c-0.28,2.1-0.42,2.1-5.47,2.38l-5.19,0.28v4.21v4.21h5.75c5.61,0,5.75,0,5.75,1.96v1.96h-8.41h-8.41L349.7,248.02L349.7,248.02z
		 M372.7,247.88v-14.3l7.43,0.28c7.85,0.28,10.24,1.12,11.64,4.21c1.54,3.23,0.98,6.03-1.4,7.99l-2.24,1.82l2.52,5.33
		c4.07,8.69,4.07,8.69,0.42,8.69c-2.94,0-3.23-0.14-4.35-2.94c-2.66-6.59-3.79-8.13-5.89-8.41l-2.1-0.28v5.75v5.75h-3.09h-3.09
		v-13.88H372.7z M385.32,244.52c1.54-1.26,1.26-4.35-0.42-5.33c-0.84-0.42-2.52-0.84-3.79-0.84c-2.24,0-2.38,0-2.38,3.93v3.93
		l2.8-0.42C383.07,245.5,384.76,244.94,385.32,244.52z M423.88,248.02v-14.16h2.66h2.66v14.16v14.16h-2.66h-2.66V248.02z
		 M442.25,250.27v-11.92h-3.79c-3.79,0-3.79,0-3.79-2.24v-2.24h11.08h11.08v2.24c0,2.24,0,2.24-4.21,2.24h-4.21v11.92v11.92h-3.09
		h-3.09V250.27z M461.89,254.62c1.54-4.07,3.79-10.52,5.19-14.16l2.38-6.73l3.79,0.28l3.79,0.28l4.77,14.02l4.77,14.02l-3.09-0.28
		c-2.8-0.28-3.23-0.56-4.07-2.94l-0.84-2.66l-5.89-0.28l-5.89-0.28l-0.98,3.09c-0.84,2.94-1.12,3.09-3.79,3.09h-2.94L461.89,254.62z
		 M476.47,250.41c-0.14-0.56-0.98-2.94-1.68-5.33s-1.54-4.35-1.82-4.35c-0.42,0-3.93,8.98-3.93,10.1c0,0.28,1.82,0.56,3.93,0.56
		C475.77,251.39,476.75,251.11,476.47,250.41z M497.37,250.27v-11.92h-3.79c-3.79,0-3.79,0-3.79-2.24v-2.24h11.08h11.08l-0.28,2.1
		c-0.28,1.96-0.56,2.1-4.21,2.38l-4.07,0.28v11.78v11.78h-3.09h-3.09v-11.92H497.37z M466.65,228.81c0-2.52,0.14-2.66,2.24-2.66
		s2.24,0.28,2.24,2.66c0,2.38-0.14,2.66-2.24,2.66S466.65,231.34,466.65,228.81z M475.07,228.81c0-2.52,0.14-2.66,2.24-2.66
		c2.1,0,2.24,0.28,2.24,2.66c0,2.38-0.14,2.66-2.24,2.66C475.35,231.48,475.07,231.34,475.07,228.81z M250.97,207.08v-12.2h-4.21
		c-4.21,0-4.21,0-4.21-2.24v-2.24h11.08h11.08v2.24c0,2.24-0.14,2.24-3.79,2.24h-3.79v12.2v12.2h-3.09h-3.09V207.08z M271.73,204.69
		v-14.58h8.41h8.41v2.24v2.24h-5.75h-5.75v3.51v3.51h5.33h5.33v2.24v2.24h-5.33h-5.33v4.21v4.21h5.75h5.75v2.24V219h-8.41h-8.41
		V204.69z M304.12,218.15c-9.82-4.49-10.94-19.49-1.82-25.52c2.94-1.96,3.93-2.1,9.4-2.1h6.17l0.28,2.38l0.28,2.38l-3.79-0.42
		c-7.71-0.7-12.34,2.8-12.34,9.54c0,7.01,3.93,10.52,11.64,9.96l4.49-0.28l-0.28,2.38l-0.28,2.38l-5.75,0.14
		C308.61,219.14,305.66,218.86,304.12,218.15z M325.16,204.69v-14.58h3.09h3.09v5.75v5.75h5.75h5.75v-5.75v-5.75h3.09H349
		l-0.14,14.3l-0.14,14.3l-2.8,0.28l-2.8,0.28v-6.59v-6.59h-5.75h-5.75v6.45V219h-3.09h-3.09v-14.3H325.16z M358.11,204.69v-14.58
		h3.37h3.37l5.19,10.1l5.19,10.1l0.28-10.1l0.28-10.1h3.09h3.09v14.58v14.58l-3.65-0.28l-3.65-0.28l-5.47-10.66l-5.47-10.66v10.94
		v10.94h-2.66h-2.66v-14.58H358.11z M390.79,218.71c-0.28-0.28-0.56-6.87-0.56-14.58v-14.02h3.09h3.09v14.58v14.58h-2.52
		C392.33,219.28,391.07,219,390.79,218.71z M406.07,218.71c-0.84-0.28-1.26-0.84-0.98-1.54c0.28-0.56,0.42-1.68,0.42-2.24
		c0-0.84,0.98-0.98,4.49-0.56c3.65,0.42,4.63,0.28,5.75-0.84c2.52-2.52,1.26-4.35-5.05-7.29c-4.49-2.1-5.89-4.07-5.89-8.13
		c0-5.47,3.51-7.85,11.92-7.85c4.35,0,4.91,0.14,4.91,1.4c0,3.09-0.56,3.51-5.19,3.23c-3.23-0.14-4.63,0-5.47,0.98
		c-1.68,1.96-0.28,3.93,5.19,7.01c6.31,3.51,8.41,6.45,7.29,10.52c-1.12,4.07-4.77,6.03-10.94,5.89
		C409.72,219.14,406.77,219,406.07,218.71z M437.91,217.87c-4.07-1.82-6.17-4.63-7.15-9.68c-2.24-10.52,4.63-17.95,16.27-17.95h5.19
		v2.52v2.52l-3.37-0.42c-4.35-0.56-6.59,0.14-9.54,2.52c-4.07,3.51-3.93,10.94,0.28,14.86c1.68,1.54,2.66,1.82,7.29,1.82
		c4.91,0,5.33,0.14,5.75,1.82c0.28,0.98,0.28,2.1,0,2.52C451.79,219.84,441.41,219.42,437.91,217.87z M459.78,204.69v-14.58h3.09
		h3.09v5.75v5.75h5.75h5.75v-5.75v-5.75h2.66h2.66v14.58v14.58h-2.66h-2.66v-6.45v-6.45h-5.75h-5.75v6.45v6.45h-3.09h-3.09V204.69z
		 M492.46,218.71c-0.28-0.28-0.56-6.87-0.56-14.58v-14.02h8.83h8.83v2.24v2.24h-5.75h-5.75v3.51v3.51h4.91h4.91v2.24v2.24h-4.91
		h-4.91v4.21v4.21h5.75h5.75v2.24V219h-8.27C496.66,219.28,492.74,219,492.46,218.71z"/>
</g>
</svg>
